<svg width="12" height="15" viewBox="0 0 12 15" fill="none" xmlns="http://www.w3.org/2000/svg">
<g id="Vector">
<path d="M6.33333 6.47368C7.80609 6.47368 9 5.24836 9 3.73684C9 2.22533 7.80609 1 6.33333 1C4.86057 1 3.66667 2.22533 3.66667 3.73684C3.66667 5.24836 4.86057 6.47368 6.33333 6.47368Z" stroke="white"/>
<path d="M1.62142 13.5463C1.42153 13.4741 1.25145 13.3325 1.13963 13.1452C1.0278 12.9579 0.98099 12.7362 1.00702 12.5173C1.14027 11.2329 1.72379 10.0452 2.64549 9.18233C3.5672 8.31941 4.7621 7.8421 6.00067 7.8421C7.23924 7.8421 8.43414 8.31941 9.35585 9.18233C10.2776 10.0452 10.8611 11.2329 10.9943 12.5173C11.0174 12.7334 10.9697 12.9513 10.859 13.1356C10.7482 13.3199 10.581 13.4597 10.3844 13.5323C9.75207 13.7568 8.49637 14 6.00291 14C3.50945 14 2.25375 13.7708 1.62142 13.5463Z" stroke="white"/>
</g>
</svg>
