<svg width="44" height="45" viewBox="0 0 44 45" fill="none" xmlns="http://www.w3.org/2000/svg">
<g id="Icon/User">
<path id="Vector" d="M22.5495 21.0777C25.5194 21.0777 27.9271 18.674 27.9271 15.7088C27.9271 12.7436 25.5194 10.3398 22.5495 10.3398C19.5795 10.3398 17.1719 12.7436 17.1719 15.7088C17.1719 18.674 19.5795 21.0777 22.5495 21.0777Z" stroke="#6F6E7C" stroke-width="1.98" stroke-miterlimit="10"/>
<path id="Vector_2" d="M13.6593 35.0591C13.2537 34.9188 12.9086 34.6438 12.6817 34.28C12.4548 33.9163 12.3599 33.4858 12.4127 33.0605C12.683 30.5661 13.867 28.2594 15.7371 26.5834C17.6072 24.9075 20.0316 23.9805 22.5446 23.9805C25.0576 23.9805 27.482 24.9075 29.3521 26.5834C31.2222 28.2594 32.4061 30.5661 32.6765 33.0605C32.7233 33.4803 32.6265 33.9036 32.4018 34.2615C32.1772 34.6194 31.8378 34.8909 31.439 35.0318C30.156 35.4679 27.6082 35.9403 22.5491 35.9403C17.49 35.9403 14.9422 35.4951 13.6593 35.0591Z" stroke="#6F6E7C" stroke-width="1.8" stroke-miterlimit="10"/>
</g>
</svg>
