<svg width="13" height="15" viewBox="0 0 13 15" fill="none" xmlns="http://www.w3.org/2000/svg">
<path id="Vector" d="M6.5 2.14286C5.21442 2.14286 3.95772 2.51989 2.8888 3.22627C1.81988 3.93265 0.986755 4.93665 0.494786 6.11132C0.00281636 7.28599 -0.125905 8.57856 0.124899 9.82558C0.375702 11.0726 0.994767 12.2181 1.90381 13.1171C2.81285 14.0162 3.97104 14.6284 5.23191 14.8765C6.49279 15.1245 7.79972 14.9972 8.98744 14.5107C10.1752 14.0241 11.1903 13.2001 11.9046 12.143C12.6188 11.0858 13 9.84288 13 8.57143C12.998 6.86706 12.3126 5.23306 11.094 4.02789C9.87546 2.82273 8.2233 2.14481 6.5 2.14286ZM6.5 13.9286C5.42869 13.9286 4.38143 13.6144 3.49066 13.0257C2.5999 12.4371 1.90563 11.6004 1.49566 10.6215C1.08568 9.64263 0.978413 8.56549 1.18742 7.5263C1.39642 6.48712 1.91231 5.53257 2.66984 4.78336C3.42738 4.03415 4.39253 3.52393 5.44326 3.31722C6.49399 3.11051 7.5831 3.2166 8.57287 3.62207C9.56264 4.02754 10.4086 4.71418 11.0038 5.59516C11.599 6.47614 11.9167 7.51188 11.9167 8.57143C11.9151 9.99174 11.3439 11.3534 10.3284 12.3577C9.31291 13.3621 7.9361 13.927 6.5 13.9286ZM9.59156 5.51384C9.64193 5.56359 9.68188 5.62267 9.70914 5.68771C9.7364 5.75274 9.75043 5.82245 9.75043 5.89286C9.75043 5.96326 9.7364 6.03297 9.70914 6.098C9.68188 6.16304 9.64193 6.22212 9.59156 6.27187L6.88323 8.95045C6.8329 9.00022 6.77316 9.0397 6.7074 9.06664C6.64165 9.09357 6.57117 9.10744 6.5 9.10744C6.42883 9.10744 6.35835 9.09357 6.2926 9.06664C6.22685 9.0397 6.1671 9.00022 6.11677 8.95045C6.06645 8.90067 6.02653 8.84158 5.99929 8.77655C5.97205 8.71152 5.95803 8.64182 5.95803 8.57143C5.95803 8.50104 5.97205 8.43134 5.99929 8.3663C6.02653 8.30127 6.06645 8.24218 6.11677 8.19241L8.82511 5.51384C8.87541 5.46403 8.93515 5.42452 9.00091 5.39756C9.06667 5.3706 9.13715 5.35672 9.20833 5.35672C9.27952 5.35672 9.35 5.3706 9.41576 5.39756C9.48152 5.42452 9.54126 5.46403 9.59156 5.51384ZM4.33334 0.535714C4.33334 0.393634 4.3904 0.257373 4.49199 0.156907C4.59357 0.0564411 4.73134 0 4.875 0H8.125C8.26866 0 8.40644 0.0564411 8.50802 0.156907C8.6096 0.257373 8.66667 0.393634 8.66667 0.535714C8.66667 0.677794 8.6096 0.814056 8.50802 0.914521C8.40644 1.01499 8.26866 1.07143 8.125 1.07143H4.875C4.73134 1.07143 4.59357 1.01499 4.49199 0.914521C4.3904 0.814056 4.33334 0.677794 4.33334 0.535714Z" fill="white"/>
</svg>
