<svg width="26" height="26" viewBox="0 0 26 26" fill="none" xmlns="http://www.w3.org/2000/svg">
<g id="Slideshow" clip-path="url(#clip0_44_91)">
<path id="Vector" d="M17.875 13C17.875 13.8975 18.6025 14.625 19.5 14.625C20.3975 14.625 21.125 13.8975 21.125 13C21.125 12.1025 20.3975 11.375 19.5 11.375C18.6025 11.375 17.875 12.1025 17.875 13Z" fill="white"/>
<path id="Vector_2" d="M11.375 13C11.375 13.8975 12.1025 14.625 13 14.625C13.8975 14.625 14.625 13.8975 14.625 13C14.625 12.1025 13.8975 11.375 13 11.375C12.1025 11.375 11.375 12.1025 11.375 13Z" fill="white"/>
<path id="Vector_3" d="M4.875 13C4.875 13.8975 5.60254 14.625 6.5 14.625C7.39746 14.625 8.125 13.8975 8.125 13C8.125 12.1025 7.39746 11.375 6.5 11.375C5.60254 11.375 4.875 12.1025 4.875 13Z" fill="white"/>
</g>
<defs>
<clipPath id="clip0_44_91">
<rect width="26" height="26" fill="white" transform="translate(26) rotate(90)"/>
</clipPath>
</defs>
</svg>
