<svg width="49" height="48" viewBox="0 0 49 48" fill="none" xmlns="http://www.w3.org/2000/svg">
<g id="Poll Act. Buttons">
<path id="Vector" d="M24.4997 46.3076C36.8199 46.3076 46.8074 36.3201 46.8074 23.9999C46.8074 11.6797 36.8199 1.6922 24.4997 1.6922C12.1795 1.6922 2.19201 11.6797 2.19201 23.9999C2.19201 36.3201 12.1795 46.3076 24.4997 46.3076Z" stroke="#8B88EF" stroke-width="2.2" stroke-linecap="round" stroke-linejoin="round"/>
<path id="Vector_2" d="M24.932 28.704C27.791 28.704 30.116 26.3777 30.116 23.52V15.744C30.116 12.885 27.791 10.56 24.932 10.56C22.073 10.56 19.748 12.885 19.748 15.744V23.52C19.748 26.3777 22.073 28.704 24.932 28.704ZM34.004 23.52V20.928C34.004 20.5843 33.8675 20.2546 33.6244 20.0116C33.3814 19.7685 33.0517 19.632 32.708 19.632C32.3643 19.632 32.0346 19.7685 31.7916 20.0116C31.5485 20.2546 31.412 20.5843 31.412 20.928V23.52C31.412 27.0931 28.5051 30 24.932 30C21.3589 30 18.452 27.0931 18.452 23.52V20.928C18.452 20.5843 18.3155 20.2546 18.0724 20.0116C17.8294 19.7685 17.4997 19.632 17.156 19.632C16.8123 19.632 16.4826 19.7685 16.2396 20.0116C15.9965 20.2546 15.86 20.5843 15.86 20.928V23.52C15.86 28.0819 19.2464 31.8559 23.636 32.4883V33.888H19.748C19.4043 33.888 19.0746 34.0245 18.8316 34.2676C18.5885 34.5106 18.452 34.8403 18.452 35.184C18.452 35.5277 18.5885 35.8574 18.8316 36.1004C19.0746 36.3435 19.4043 36.48 19.748 36.48H30.116C30.4597 36.48 30.7894 36.3435 31.0324 36.1004C31.2755 35.8574 31.412 35.5277 31.412 35.184C31.412 34.8403 31.2755 34.5106 31.0324 34.2676C30.7894 34.0245 30.4597 33.888 30.116 33.888H26.228V32.4883C30.6176 31.8559 34.004 28.0819 34.004 23.52Z" fill="#8B88EF"/>
</g>
</svg>
