<svg width="28" height="29" viewBox="0 0 28 29" fill="none" xmlns="http://www.w3.org/2000/svg">
<g id="poker-cards 2" clip-path="url(#clip0_1_1004)">
<path id="Vector" d="M25.5138 2.25586L15.8084 0.544515C14.1752 0.256593 12.6122 1.35097 12.3242 2.98428L12.0933 4.2933C11.9784 4.31031 11.8637 4.33328 11.7498 4.36379L2.23051 6.91452C1.45452 7.12243 0.805901 7.62013 0.404238 8.31585C0.00257459 9.01162 -0.104171 9.82218 0.103797 10.5982L4.30242 26.2679C4.51034 27.0439 5.00803 27.6925 5.70379 28.0942C6.16725 28.3618 6.68151 28.4984 7.20271 28.4984C7.46394 28.4984 7.72698 28.4641 7.98608 28.3946L17.5054 25.8439C18.2813 25.636 18.93 25.1383 19.3316 24.4426C19.451 24.2359 19.5436 24.0189 19.6104 23.7958L21.6523 24.1559C21.8282 24.1869 22.0032 24.2019 22.176 24.2019C23.6074 24.2019 24.8796 23.1735 25.1366 21.7161L27.9535 5.74019C28.2415 4.10693 27.147 2.54389 25.5138 2.25586ZM18.0474 22.5849C18.1419 22.9376 18.0934 23.3061 17.9108 23.6223C17.7282 23.9386 17.4334 24.1648 17.0807 24.2593L7.56139 26.81C7.20867 26.9046 6.84026 26.8561 6.52401 26.6734C6.20777 26.4908 5.98153 26.196 5.88704 25.8433L1.68841 10.1736C1.59392 9.82087 1.64242 9.45239 1.82502 9.13614C2.00761 8.81989 2.30242 8.59371 2.65514 8.49916L12.1744 5.94843C12.2922 5.91688 12.4118 5.90124 12.5305 5.90124C12.7674 5.90124 13.0012 5.96336 13.2118 6.08498C13.528 6.26758 13.7543 6.56239 13.8488 6.91512L18.0474 22.5849ZM16.4044 10.1144C16.4104 10.0675 16.4167 10.0207 16.4249 9.97421C16.5134 9.47219 16.9516 9.11798 17.4447 9.11798C17.5042 9.11798 17.5645 9.12313 17.6251 9.13384C18.0067 9.20116 18.3166 9.47323 18.4335 9.84389C18.5255 10.1355 18.7721 10.3518 19.0733 10.4049C19.3746 10.458 19.6802 10.3391 19.8664 10.0966C20.1031 9.78827 20.4872 9.6386 20.8689 9.70586C21.1414 9.75393 21.3789 9.90525 21.5377 10.1319C21.6964 10.3586 21.7574 10.6335 21.7093 10.9061C21.3831 12.7564 19.2977 14.3309 18.2613 15.0102C18.0014 14.6621 17.658 14.1664 17.3357 13.59L16.4044 10.1144ZM26.3379 5.45533L23.5209 21.4313C23.39 22.1737 22.6795 22.671 21.9371 22.5403L19.6246 22.1326L18.2212 16.895C18.3044 16.8795 18.3863 16.851 18.4638 16.8087C18.6387 16.7134 22.7526 14.4368 23.3249 11.1909C23.5812 9.73747 22.6072 8.34647 21.1538 8.09021C20.5535 7.9844 19.9509 8.08595 19.4337 8.36107C19.0417 7.92561 18.5103 7.62407 17.9099 7.5182C17.206 7.39401 16.4956 7.5515 15.9099 7.96159C15.8865 7.978 15.8639 7.99528 15.8411 8.01229L15.4334 6.49054C15.2255 5.71454 14.7278 5.06591 14.032 4.66424C13.9308 4.60578 13.8268 4.55432 13.7212 4.50844L13.9397 3.26914C14.0706 2.52678 14.7812 2.0293 15.5235 2.16016L25.2288 3.87151C25.9713 4.00243 26.4688 4.71291 26.3379 5.45533Z" fill="#6F6E7C"/>
</g>
<defs>
<clipPath id="clip0_1_1004">
<rect width="27.9996" height="28" fill="white" transform="translate(0 0.5)"/>
</clipPath>
</defs>
</svg>
